PathFileType	4	(X/Y/Z)	C:/Users/opensim2020/Desktop/walking_exp_matlab/subject03_walking08_straight_02.trc	
DataRate	CameraRate	NumFrames	NumMarkers	Units	OrigDataRate	OrigDataStartFrame	OrigNumFrames	
100.00	100.00	4	51	mm	100.00	1670	314	
Frame#	Time	LFHD			RFHD			LBHD			RBHD			C7			T10			CLAV			STRN			RBAK			LSHO			LUPA			LELB			LFRM			LWRA			LWRB			LFIN			RSHO			RUPA			RELB			RFRM			RWRA			RWRB			RFIN			LASI			RASI			LPSI			RPSI			LTHI			LKNE			LTIB			LANK			LHEE			LTOE			RTHI			RKNE			RTIB			RANK			RHEE			RTOE			*39			*40			*41			*42			*43			*44			*45			*46			*47			*48			*49			*50			
		X1	Y1	Z1	X2	Y2	Z2	X3	Y3	Z3	X4	Y4	Z4	X5	Y5	Z5	X6	Y6	Z6	X7	Y7	Z7	X8	Y8	Z8	X9	Y9	Z9	X10	Y10	Z10	X11	Y11	Z11	X12	Y12	Z12	X13	Y13	Z13	X14	Y14	Z14	X15	Y15	Z15	X16	Y16	Z16	X17	Y17	Z17	X18	Y18	Z18	X19	Y19	Z19	X20	Y20	Z20	X21	Y21	Z21	X22	Y22	Z22	X23	Y23	Z23	X24	Y24	Z24	X25	Y25	Z25	X26	Y26	Z26	X27	Y27	Z27	X28	Y28	Z28	X29	Y29	Z29	X30	Y30	Z30	X31	Y31	Z31	X32	Y32	Z32	X33	Y33	Z33	X34	Y34	Z34	X35	Y35	Z35	X36	Y36	Z36	X37	Y37	Z37	X38	Y38	Z38	X39	Y39	Z39	X40	Y40	Z40	X41	Y41	Z41	X42	Y42	Z42	X43	Y43	Z43	X44	Y44	Z44	X45	Y45	Z45	X46	Y46	Z46	X47	Y47	Z47	X48	Y48	Z48	X49	Y49	Z49	X50	Y50	Z50	X51	Y51	Z51	

118	1.170	1544.28821	268.79443	1627.03564	1411.77893	278.53201	1633.31213	1546.49170	394.11731	1576.09668	1416.27698	398.84042	1582.50879	1495.96130	419.99933	1422.57593	1498.17456	454.36761	1108.99841	1482.76050	297.37888	1346.04126	1485.60559	255.51717	1181.13867	1404.66272	482.44107	1247.62769	1640.86572	324.63742	1383.35620	1716.49292	300.87436	1191.29846	1729.90710	272.89224	1072.11023	1724.31702	217.79459	954.15857	1688.85400	174.74448	844.97858	1742.24609	191.40280	844.51294	1729.63257	155.51854	768.90924	1327.92773	357.73654	1367.53320	1258.44080	357.42413	1143.37073	1248.26392	342.37656	1030.84033	1246.06311	331.47232	894.10706	1282.32947	308.85507	796.83594	1235.82935	336.66275	793.96802	1247.00574	318.05197	721.39673	1604.48035	277.80762	945.93750	1365.70459	291.67841	945.18457	1561.98071	442.69724	969.98474	1413.25403	449.83093	971.21063	1634.42480	341.93945	643.20404	1588.63989	346.51352	466.87195	1586.01086	406.32550	279.83737	1537.90710	435.84677	73.41146	1500.45862	476.22598	39.49753	1515.76733	282.61005	34.75465	1312.59888	282.69400	654.71930	1335.62024	215.09160	487.03818	1332.89148	306.23965	317.67334	1375.68579	402.04654	123.93179	1429.90112	453.19208	106.62328	1390.88867	286.52600	43.47356	1494.05786	355.49957	1681.58411																																	 
119	1.180	1544.10767	260.94775	1626.39136	1411.64587	270.80078	1632.62146	1546.55676	386.48346	1576.06653	1416.22095	391.34955	1582.38611	1496.37146	413.00858	1422.27759	1498.46948	447.42490	1108.53137	1482.79724	290.50906	1345.61768	1485.75439	248.60339	1180.73303	1405.47913	475.82935	1246.97119	1640.91992	317.50818	1383.09009	1716.85632	292.32254	1191.55798	1730.51221	262.97919	1072.75269	1725.26599	205.93307	955.79559	1690.00391	160.56161	847.48401	1743.14673	177.93404	846.48065	1730.57593	140.70360	771.47540	1328.11047	351.52533	1366.83032	1258.55847	352.11267	1142.76965	1248.22498	337.40240	1030.19812	1245.96387	326.76987	893.42859	1282.11365	303.76245	796.27087	1235.78748	332.20148	793.26276	1247.12097	313.28439	720.62988	1604.84363	271.38940	945.45184	1366.14502	284.55728	944.94238	1561.94653	436.01129	969.57739	1413.24487	442.81995	970.73761	1634.28003	337.07336	643.07990	1588.75146	343.81232	466.71933	1585.86609	405.17194	280.11432	1537.54333	435.49023	73.50404	1500.27979	476.18893	40.04179	1515.79077	282.56274	34.69824	1312.90271	273.41580	655.11859	1336.43420	204.64873	487.79187	1333.32373	289.24374	314.95825	1375.93347	376.56265	117.15057	1430.00012	427.40924	97.43371	1391.40723	257.32962	42.39534	1500.50293	349.34821	1684.46704																																	 
120	1.190	1543.92065	253.00957	1625.68555	1411.38623	263.13669	1631.77539	1546.54773	378.80096	1575.95557	1416.13843	383.83389	1582.02161	1496.73657	406.09061	1422.01221	1498.63123	440.48825	1108.02380	1482.80896	283.61880	1345.10437	1485.89868	241.74986	1180.18994	1406.22961	469.21341	1246.27283	1640.96863	310.45422	1382.76270	1717.16211	283.85400	1191.75366	1731.11279	252.82143	1073.38477	1726.09851	194.16637	957.33295	1690.94922	146.78709	849.85095	1743.91370	164.66925	848.35278	1731.50879	126.25789	774.08716	1328.22925	345.26917	1366.22888	1258.69092	346.67636	1142.07129	1248.20923	332.31543	1029.46411	1245.86646	321.90179	892.72498	1282.02612	298.71771	795.59247	1235.81152	327.48846	792.51355	1247.08337	308.83646	719.83710	1605.32336	265.40955	944.55542	1366.54053	277.41187	944.57190	1561.88953	429.33768	969.17700	1413.17493	435.85330	970.18530	1634.16492	332.25168	642.81927	1588.73218	341.16855	466.60931	1585.94373	403.95001	280.39481	1537.57434	435.53152	74.02943	1500.17590	476.33502	40.76711	1515.94458	282.54507	34.82752	1313.19434	264.53192	655.20325	1337.17578	194.74191	488.33810	1333.79065	272.60172	312.33612	1376.45947	350.81964	110.55769	1429.95569	400.41696	88.36485	1391.68127	227.98575	42.16994	1493.70715	339.23044	1680.95850																																	 
121	1.200	1543.70190	245.11417	1624.85449	1411.22046	255.24632	1630.86475	1546.60046	371.12897	1575.72668	1416.13782	376.22574	1581.70093	1496.88184	398.95020	1421.35779	1498.68738	433.57550	1107.48193	1482.76514	276.84613	1344.46594	1486.04431	234.90651	1179.72314	1406.83972	462.67554	1245.57092	1641.00256	303.47202	1382.33154	1717.42969	275.41434	1191.84314	1731.51770	242.86656	1073.99524	1726.72021	182.53998	958.79541	1691.78674	133.14127	852.26733	1744.50732	151.53676	850.21460	1732.25562	111.84528	776.62457	1328.33325	338.91870	1365.50708	1258.79407	341.27795	1141.28503	1248.26160	327.02692	1028.72900	1245.87512	316.91946	891.94049	1281.97241	293.57657	794.83472	1235.91956	322.60617	791.71570	1247.10254	304.10281	719.12512	1605.68420	258.04599	944.41492	1366.84131	270.78348	943.95605	1561.73755	422.65930	968.66577	1413.03345	428.86993	969.56451	1634.35376	327.82959	642.60272	1588.71338	338.52405	466.46420	1585.78040	402.69440	280.66180	1537.25439	435.22708	74.20719	1500.02747	476.30676	41.28915	1516.00598	282.54376	34.81645	1313.38831	256.01077	655.10718	1337.95642	185.20064	488.63974	1334.13281	256.40860	309.99771	1376.76282	325.39581	104.75502	1430.34839	374.27658	80.31124	1391.38757	199.23271	42.75765	1493.71423	331.08673	1680.59265																																	 
